<svg xmlns="http://www.w3.org/2000/svg" width="645" height="615" viewBox="0 0 645 615">
  <defs>
    <style>
      .cls-1 {
        fill: #fff;
        fill-rule: evenodd;
      }
    </style>
  </defs>
  <path class="cls-1" d="M400.5,125C578.612,125,723,262.672,723,432.5S578.612,740,400.5,740,78,602.328,78,432.5,222.388,125,400.5,125Zm16.8,563.961c-22.308,1.54-77.975-34.1-135.9-107.054-41.694-52.516-56.314-88.129-46.406-108.069,12.5-25.148,53.373-40.8,86.562-33.381,39.583,8.848,58.177,57.7,85.25,54.4,23.575-2.872,28.343-42.187,57.707-55.636,32.6-14.929,82.472-1.791,99.677,25.964,9.925,16.009,1.36,56.848-34.1,113.743C485.817,649.961,439.067,687.458,417.3,688.961ZM202,620,181.75,255.249C207.1,240.614,244.774,258.411,265.9,295s17.7,78.115-7.649,92.751S195.226,384.589,174.1,348,156.4,269.885,181.75,255.249ZM400,240c29.271,0,53,34.25,53,76.5S429.271,393,400,393s-53-34.25-53-76.5S370.729,240,400,240Zm207.772,14.082c26.986,11.565,35.309,52.467,18.591,91.358s-52.149,61.043-79.135,49.478-35.309-52.467-18.591-91.358S580.786,242.517,607.772,254.082Z" transform="translate(-78 -125)"/>
</svg>
